<svg width="145" height="130" viewBox="0 0 280 158" fill="none" xmlns="http://www.w3.org/2000/svg">
<path d="M0 3C0 1.34315 1.34315 0 3 0C4.65685 0 6 1.34315 6 3V155C6 156.657 4.65685 158 3 158C1.34315 158 0 156.657 0 155V3Z" fill="#D9D9D9"/>
<path d="M16 81C16 79.3431 17.3431 78 19 78C20.6569 78 22 79.3431 22 81V155C22 156.657 20.6569 158 19 158C17.3431 158 16 156.657 16 155V81Z" fill="#D9D9D9"/>
<path d="M32 41C32 39.3431 33.3431 38 35 38C36.6569 38 38 39.3431 38 41V155C38 156.657 36.6569 158 35 158C33.3431 158 32 156.657 32 155V41Z" fill="#D9D9D9"/>
<path d="M48 65C48 63.3431 49.3431 62 51 62C52.6569 62 54 63.3431 54 65V155C54 156.657 52.6569 158 51 158C49.3431 158 48 156.657 48 155V65Z" fill="#D9D9D9"/>
<path d="M64 22C64 20.3431 65.3431 19 67 19C68.6569 19 70 20.3431 70 22V155C70 156.657 68.6569 158 67 158C65.3431 158 64 156.657 64 155V22Z" fill="#33C173"/>
<path d="M80 98C80 96.3431 81.3431 95 83 95C84.6569 95 86 96.3431 86 98V155C86 156.657 84.6569 158 83 158C81.3431 158 80 156.657 80 155V98Z" fill="#D9D9D9"/>
<path d="M96 81C96 79.3431 97.3431 78 99 78C100.657 78 102 79.3431 102 81V155C102 156.657 100.657 158 99 158C97.3431 158 96 156.657 96 155V81Z" fill="#D9D9D9"/>
<path d="M112 49C112 47.3431 113.343 46 115 46C116.657 46 118 47.3431 118 49V155C118 156.657 116.657 158 115 158C113.343 158 112 156.657 112 155V49Z" fill="#D9D9D9"/>
<path d="M128 65C128 63.3431 129.343 62 131 62C132.657 62 134 63.3431 134 65V155C134 156.657 132.657 158 131 158C129.343 158 128 156.657 128 155V65Z" fill="#D9D9D9"/>
<path d="M144 3C144 1.34315 145.343 0 147 0C148.657 0 150 1.34315 150 3V155C150 156.657 148.657 158 147 158C145.343 158 144 156.657 144 155V3Z" fill="#D9D9D9"/>
<path d="M160 20C160 18.3431 161.343 17 163 17C164.657 17 166 18.3431 166 20V155C166 156.657 164.657 158 163 158C161.343 158 160 156.657 160 155V20Z" fill="#D9D9D9"/>
<path d="M176 34C176 32.3431 177.343 31 179 31C180.657 31 182 32.3431 182 34V155C182 156.657 180.657 158 179 158C177.343 158 176 156.657 176 155V34Z" fill="#D9D9D9"/>
<path d="M192 41C192 39.3431 193.343 38 195 38C196.657 38 198 39.3431 198 41V155C198 156.657 196.657 158 195 158C193.343 158 192 156.657 192 155V41Z" fill="#D9D9D9"/>
<path d="M208 34C208 32.3431 209.343 31 211 31C212.657 31 214 32.3431 214 34V155C214 156.657 212.657 158 211 158C209.343 158 208 156.657 208 155V34Z" fill="#D9D9D9"/>
<path d="M224 20C224 18.3431 225.343 17 227 17C228.657 17 230 18.3431 230 20V155C230 156.657 228.657 158 227 158C225.343 158 224 156.657 224 155V20Z" fill="#D9D9D9"/>
<path d="M240 3C240 1.34315 241.343 0 243 0C244.657 0 246 1.34315 246 3V155C246 156.657 244.657 158 243 158C241.343 158 240 156.657 240 155V3Z" fill="#D9D9D9"/>
</svg>
