<svg width="68" height="88" viewBox="0 0 68 88" fill="none" xmlns="http://www.w3.org/2000/svg">
<path d="M34.0983 0.0876465C33.3567 0.0876465 32.6148 0.349951 32.0232 0.877034L24.5565 7.51359L18.2658 2.79761C17.32 2.08927 16.0486 1.9714 14.9903 2.50057C13.9319 3.02974 13.265 4.11265 13.265 5.29598V18.8376H16.39H19.515H48.6817H51.8067H54.9317V5.29598C54.9317 4.11265 54.2648 3.02974 53.2064 2.50057C52.1481 1.96724 50.8767 2.08719 49.9309 2.79761L43.6402 7.51359L36.1735 0.877034C35.5819 0.349951 34.84 0.0876465 34.0983 0.0876465ZM13.3708 23.0043C13.3083 23.6918 13.265 24.4001 13.265 25.0876C13.265 36.5668 22.6192 45.921 34.0983 45.921C45.5775 45.921 54.9317 36.5668 54.9317 25.0876C54.9317 24.4001 54.8884 23.6918 54.8259 23.0043H13.3708ZM10.14 54.2543C4.68988 56.6328 2.17494 57.9268 0.765015 63.6293V66.1277C0.765015 72.2545 4.64983 77.7501 10.5754 81.5289C16.501 85.3077 24.6084 87.5876 34.0983 87.5876C43.5883 87.5876 51.6957 85.3077 57.6213 81.5289C63.5469 77.7501 67.4317 72.2545 67.4317 66.1277V63.6293C67.4317 58.4887 63.015 56.171 58.0567 54.2543C53.0984 52.3376 43.6496 49.3376 34.0983 49.3376C24.5471 49.3376 15.5902 51.8759 10.14 54.2543Z" fill="#D3EDDE"/>
</svg>
