<svg width="112" height="88" viewBox="0 0 112 88" fill="none" xmlns="http://www.w3.org/2000/svg">
<path d="M29.7821 48.604C19.6746 48.604 0 54.1326 0 64.2698C0 68.4695 2.56097 72.2775 6.68628 74.2137C12.0834 76.7474 20.8051 78.2423 29.8193 78.2423C38.0104 78.2423 46.4445 77.0077 52.8457 74.2038C56.9264 72.4139 59.5642 68.5166 59.5642 64.2723C59.5642 54.135 39.8896 48.604 29.7821 48.604ZM29.7821 14C25.837 14 22.0535 15.5672 19.2639 18.3568C16.4743 21.1464 14.9072 24.9299 14.9072 28.8749C14.9072 32.82 16.4743 36.6035 19.2639 39.3931C22.0535 42.1827 25.837 43.7499 29.7821 43.7499C33.7272 43.7499 37.5107 42.1827 40.3003 39.3931C43.0898 36.6035 44.657 32.82 44.657 28.8749C44.657 24.9299 43.0898 21.1464 40.3003 18.3568C37.5107 15.5672 33.7272 14 29.7821 14Z" fill="white"/>
<path d="M78.3333 0C77.5917 0 76.8498 0.262305 76.2581 0.789388L68.7915 7.42594L62.5008 2.70996C61.555 2.00163 60.2836 1.88376 59.2253 2.41292C58.1669 2.94209 57.5 4.025 57.5 5.20833V18.75H60.625H63.75H92.9167H96.0417H99.1667V5.20833C99.1667 4.025 98.4997 2.94209 97.4414 2.41292C96.3831 1.87959 95.1117 1.99954 94.1659 2.70996L87.8752 7.42594L80.4085 0.789388C79.8169 0.262305 79.075 0 78.3333 0ZM57.6058 22.9167C57.5433 23.6042 57.5 24.3125 57.5 25C57.5 36.4792 66.8542 45.8333 78.3333 45.8333C89.8125 45.8333 99.1667 36.4792 99.1667 25C99.1667 24.3125 99.1234 23.6042 99.0609 22.9167H57.6058ZM54.375 54.1667C48.9249 56.5451 46.4099 57.8391 45 63.5417V66.04C45 72.1668 48.8848 77.6624 54.8104 81.4412C60.736 85.22 68.8434 87.5 78.3333 87.5C87.8232 87.5 95.9307 85.22 101.856 81.4412C107.782 77.6624 111.667 72.1668 111.667 66.04V63.5417C111.667 58.401 107.25 56.0833 102.292 54.1667C97.3334 52.25 87.8846 49.25 78.3333 49.25C68.782 49.25 59.8251 51.7882 54.375 54.1667Z" fill="white"/>
</svg>
