<svg width="60" height="65" viewBox="0 0 60 65" fill="none" xmlns="http://www.w3.org/2000/svg">
<path d="M29.9098 34.6414C19.8023 34.6414 0.127686 40.1699 0.127686 50.3072C0.127686 54.5069 2.68865 58.3149 6.81397 60.2511C12.2111 62.7848 20.9328 64.2797 29.947 64.2797C38.1381 64.2797 46.5722 63.0451 52.9734 60.2412C57.054 58.4512 59.6919 54.554 59.6919 50.3097C59.6919 40.1724 40.0173 34.6414 29.9098 34.6414ZM29.9098 0.0373535C25.9647 0.0373535 22.1812 1.60453 19.3916 4.39412C16.602 7.18371 15.0348 10.9672 15.0348 14.9123C15.0348 18.8574 16.602 22.6409 19.3916 25.4304C22.1812 28.22 25.9647 29.7872 29.9098 29.7872C33.8549 29.7872 37.6384 28.22 40.4279 25.4304C43.2175 22.6409 44.7847 18.8574 44.7847 14.9123C44.7847 10.9672 43.2175 7.18371 40.4279 4.39412C37.6384 1.60453 33.8549 0.0373535 29.9098 0.0373535Z" fill="#80C29E"/>
</svg>
