<svg width="101" height="97" viewBox="0 0 101 97" fill="none" xmlns="http://www.w3.org/2000/svg">
<path d="M37.7821 51.604C27.6746 51.604 8 57.1326 8 67.2698C8 71.4695 10.561 75.2775 14.6863 77.2137C20.0834 79.7474 28.8051 81.2423 37.8193 81.2423C46.0104 81.2423 54.4445 80.0077 60.8457 77.2038C64.9264 75.4139 67.5642 71.5166 67.5642 67.2723C67.5642 57.135 47.8896 51.604 37.7821 51.604ZM37.7821 17C33.837 17 30.0535 18.5672 27.2639 21.3568C24.4743 24.1464 22.9072 27.9299 22.9072 31.8749C22.9072 35.82 24.4743 39.6035 27.2639 42.3931C30.0535 45.1827 33.837 46.7499 37.7821 46.7499C41.7272 46.7499 45.5107 45.1827 48.3003 42.3931C51.0898 39.6035 52.657 35.82 52.657 31.8749C52.657 27.9299 51.0898 24.1464 48.3003 21.3568C45.5107 18.5672 41.7272 17 37.7821 17Z" fill="#63BD8B"/>
<path d="M67.2865 5C66.5448 5 65.8029 5.2623 65.2113 5.78939L57.7446 12.4259L51.4539 7.70996C50.5081 7.00163 49.2367 6.88376 48.1784 7.41292C47.1201 7.94209 46.4531 9.025 46.4531 10.2083V23.75H49.5781H52.7031H81.8698H84.9948H88.1198V10.2083C88.1198 9.025 87.4529 7.94209 86.3945 7.41292C85.3362 6.87959 84.0648 6.99954 83.119 7.70996L76.8283 12.4259L69.3617 5.78939C68.77 5.2623 68.0281 5 67.2865 5ZM46.5589 27.9167C46.4964 28.6042 46.4531 29.3125 46.4531 30C46.4531 41.4792 55.8073 50.8333 67.2865 50.8333C78.7656 50.8333 88.1198 41.4792 88.1198 30C88.1198 29.3125 88.0765 28.6042 88.014 27.9167H46.5589ZM43.3281 59.1667C37.878 61.5451 35.363 62.8391 33.9531 68.5417V71.04C33.9531 77.1668 37.8379 82.6624 43.7635 86.4412C49.6891 90.22 57.7965 92.5 67.2865 92.5C76.7764 92.5 84.8838 90.22 90.8094 86.4412C96.735 82.6624 100.62 77.1668 100.62 71.04V68.5417C100.62 63.401 96.2031 61.0833 91.2448 59.1667C86.2865 57.25 76.8378 54.25 67.2865 54.25C57.7352 54.25 48.7783 56.7882 43.3281 59.1667Z" fill="url(#paint0_linear_132_75)"/>
<defs>
<linearGradient id="paint0_linear_132_75" x1="67.2865" y1="5" x2="67.2865" y2="92.5" gradientUnits="userSpaceOnUse">
<stop stop-color="#AAE0C3"/>
<stop offset="1" stop-color="#87D6AC"/>
</linearGradient>
</defs>
</svg>
