<svg width="100" height="100" viewBox="0 0 100 100" fill="none" xmlns="http://www.w3.org/2000/svg">
<path d="M100 50C100 77.6142 77.6142 100 50 100C22.3858 100 0 77.6142 0 50C0 22.3858 22.3858 0 50 0C77.6142 0 100 22.3858 100 50ZM7.14299 50C7.14299 73.6693 26.3307 92.857 50 92.857C73.6693 92.857 92.857 73.6693 92.857 50C92.857 26.3307 73.6693 7.14299 50 7.14299C26.3307 7.14299 7.14299 26.3307 7.14299 50Z" fill="#D9D9D9"/>
<path d="M50 3.57149C50 1.59901 48.3988 -0.0132912 46.4313 0.127414C34.4748 0.982495 23.1767 6.11259 14.6447 14.6447C5.26784 24.0215 1.1593e-06 36.7392 0 50C-1.1593e-06 63.2608 5.26784 75.9785 14.6447 85.3553C23.1767 93.8874 34.4748 99.0175 46.4313 99.8726C48.3988 100.013 50 98.401 50 96.4285C50 94.456 48.3979 92.8725 46.4323 92.7084C36.3726 91.8684 26.8875 87.4965 19.6955 80.3045C11.6583 72.2672 7.14299 61.3664 7.14299 50C7.14299 38.6336 11.6583 27.7328 19.6955 19.6955C26.8876 12.5035 36.3726 8.13161 46.4323 7.29163C48.3979 7.12751 50 5.54397 50 3.57149Z" fill="#33C173"/>
<path d="M30 51.8154H31.7568C31.7568 52.5355 31.9824 53.0732 32.4336 53.4287C32.8893 53.7842 33.484 53.9619 34.2178 53.9619C34.6917 53.9619 35.0837 53.8913 35.3936 53.75C35.708 53.6042 35.9382 53.4196 36.084 53.1963C36.2298 52.9684 36.3027 52.7292 36.3027 52.4785C36.3027 51.8314 36.027 51.4258 35.4756 51.2617C35.1566 51.1159 34.6165 50.9495 33.8555 50.7627C33.0944 50.5758 32.4951 50.4004 32.0576 50.2363C31.611 50.0723 31.2259 49.8057 30.9023 49.4365C30.5833 49.0628 30.4238 48.5547 30.4238 47.9121C30.4238 47.2832 30.5902 46.75 30.9229 46.3125C31.2555 45.8704 31.6953 45.5423 32.2422 45.3281C32.7891 45.1094 33.3678 45 33.9785 45C34.6803 45 35.3161 45.123 35.8857 45.3691C36.4554 45.6107 36.9043 45.9707 37.2324 46.4492C37.5651 46.9232 37.7314 47.4951 37.7314 48.165H36.0498C36.0225 47.7503 35.9154 47.4131 35.7285 47.1533C35.5462 46.8936 35.3001 46.7044 34.9902 46.5859C34.6849 46.4629 34.3294 46.4014 33.9238 46.4014C33.4453 46.4014 33.0215 46.5062 32.6523 46.7158C32.2832 46.9209 32.0986 47.249 32.0986 47.7002C32.0986 48.3473 32.4951 48.7734 33.2881 48.9785C33.3291 48.9967 33.7689 49.113 34.6074 49.3271C35.4505 49.5459 35.9587 49.6803 36.1318 49.7305C36.5374 49.8672 36.8815 50.07 37.1641 50.3389C37.4466 50.6032 37.6562 50.9062 37.793 51.248C37.9297 51.5853 37.998 51.9294 37.998 52.2803C37.998 52.973 37.818 53.5495 37.458 54.0098C37.098 54.4701 36.6217 54.8096 36.0293 55.0283C35.4368 55.2425 34.7965 55.3496 34.1084 55.3496C33.3428 55.3496 32.6546 55.2243 32.0439 54.9736C31.4333 54.7184 30.9434 54.3265 30.5742 53.7979C30.2096 53.2646 30.0182 52.6038 30 51.8154Z" fill="#33C173"/>
<path d="M38.1006 46.7363V45.2119H46.0303V46.7363H42.9062V55.124H41.2178L41.2109 46.7363H38.1006Z" fill="#33C173"/>
<path d="M47.2744 51.2002H50.2412L48.7715 46.9482L47.2744 51.2002ZM44.1162 55.124L47.8623 45.2119H49.7148L53.4609 55.124H51.6016L50.7334 52.5195H46.7891L45.873 55.124H44.1162Z" fill="#33C173"/>
<path d="M55.8262 46.6543V49.7305H58.6699C59.2077 49.7305 59.6224 49.596 59.9141 49.3271C60.2057 49.0583 60.3516 48.6709 60.3516 48.165C60.3516 47.5817 60.1989 47.1852 59.8936 46.9756C59.5882 46.7614 59.1712 46.6543 58.6426 46.6543H55.8262ZM54.1445 55.124V45.2119H58.8066C59.8639 45.2119 60.6706 45.4466 61.2266 45.916C61.7826 46.3854 62.0605 47.0508 62.0605 47.9121C62.0605 48.7142 61.8805 49.2998 61.5205 49.6689C61.3245 49.8695 61.1035 50.0472 60.8574 50.2021C60.6113 50.3571 60.4655 50.4346 60.4199 50.4346C60.8164 50.4847 61.1605 50.667 61.4521 50.9814C61.7484 51.3005 61.8965 51.8132 61.8965 52.5195C61.8965 52.5378 61.8965 52.556 61.8965 52.5742C61.8965 53.9141 62.0765 54.764 62.4365 55.124H60.5703C60.4062 54.8506 60.3242 54.3698 60.3242 53.6816C60.3242 53.0391 60.2695 52.5286 60.1602 52.1504C60.0508 51.7721 59.8548 51.4919 59.5723 51.3096C59.2943 51.1273 58.8955 51.0361 58.376 51.0361H55.8262V55.124H54.1445Z" fill="#33C173"/>
<path d="M62.6826 46.7363V45.2119H70.6123V46.7363H67.4883V55.124H65.7998L65.793 46.7363H62.6826Z" fill="#33C173"/>
</svg>
