<svg width="34" height="25" viewBox="0 0 34 25" fill="none" xmlns="http://www.w3.org/2000/svg">
<path d="M8.91863 15.2818C7.63571 14.4369 6.2189 13.787 4.70851 13.6726C3.21762 13.5595 1.65264 14.1003 0.967633 15.4872C0.33852 16.7558 0.853245 18.1557 1.8658 19.0682C3.27351 20.3368 5.33893 20.8372 7.24836 20.9776C7.27176 20.9802 7.29385 20.9646 7.30035 20.9412L8.95892 15.3923C8.97322 15.3455 8.95892 15.3091 8.91863 15.2818Z" fill="#FFC600"/>
<path d="M11.0828 22.952C13.0053 23.7332 15.0902 24.2779 17.335 24.5859C18.0421 24.6834 18.7947 24.7042 19.594 24.6496C22.5836 24.4455 26.3856 23.923 26.1997 19.9287C26.1815 19.5348 26.1464 19.2632 26.0944 19.1163C25.4328 17.2172 23.6534 16.1085 21.7907 15.4755C20.2427 14.9504 18.7973 14.6501 17.4532 14.5734C15.6465 14.472 13.8371 14.6085 12.0265 14.9829C11.5534 15.0816 11.101 15.2584 10.6422 15.3923C10.3705 15.4729 10.1782 15.6783 10.1145 15.9564C9.69722 17.7593 9.25918 19.5608 8.79904 21.3611C8.78865 21.404 8.79645 21.443 8.82114 21.4794C9.27478 22.1176 10.3185 22.6414 11.0828 22.952Z" fill="#FFC600"/>
<path d="M8.65087 7.65057C8.01005 9.29094 8.92123 10.8585 10.5187 11.4343C12.5646 12.1726 14.8939 11.281 16.6747 10.0669C16.7084 10.0435 16.7188 10.0123 16.7071 9.97465L15.0564 4.45171C15.0434 4.40752 15.0135 4.38672 14.968 4.38932C12.7817 4.5362 9.54904 5.35379 8.65087 7.65057Z" fill="#FFC600"/>
<path d="M33.7062 6.60291C33.987 5.9725 34.0026 5.17311 33.9129 4.48161C33.48 1.12027 29.448 0.812214 26.8834 0.688731C26.1217 0.652336 25.3678 0.723826 24.6166 0.84081C22.7318 1.13587 20.9303 1.6064 19.2106 2.25501C18.3111 2.59427 17.1985 3.11939 16.5746 3.86679C16.5434 3.90319 16.5317 3.95388 16.5434 4.00067C17.0048 5.79312 17.4363 7.56738 17.838 9.32084C17.8952 9.573 18.0161 9.82777 18.276 9.92265C19.1664 10.2489 20.0672 10.4738 20.9784 10.5973C22.984 10.8676 25.0182 10.9417 26.9874 10.5648C29.4675 10.0903 32.5961 9.09207 33.7062 6.60291Z" fill="#FFC600"/>
</svg>
