<svg width="24" height="24" viewBox="0 0 276 276" fill="none" xmlns="http://www.w3.org/2000/svg">
<path d="M270 141.125C270 131.375 269.125 122 267.5 113H138V166.188H212C208.813 183.375 199.125 197.938 184.563 207.688V242.187H229C255 218.25 270 183 270 141.125Z" fill="#4285F4"/>
<path d="M138 275.5C175.125 275.5 206.25 263.187 229 242.187L184.563 207.688C172.25 215.938 156.5 220.812 138 220.812C102.187 220.812 71.875 196.625 61.0625 164.125H15.125V199.75C37.75 244.688 84.25 275.5 138 275.5Z" fill="#34A853"/>
<path d="M61.0625 164.125C58.3125 155.875 56.75 147.063 56.75 138C56.75 128.938 58.3125 120.125 61.0625 111.875V76.25H15.125C5.5 95.4107 0.491517 116.558 0.500011 138C0.500011 160.188 5.81251 181.188 15.125 199.75L61.0625 164.125Z" fill="#FBBC05"/>
<path d="M138 55.1875C158.187 55.1875 176.312 62.125 190.562 75.75L230 36.3125C206.188 14.125 175.062 0.5 138 0.5C84.25 0.5 37.75 31.3125 15.125 76.25L61.0625 111.875C71.875 79.375 102.187 55.1875 138 55.1875Z" fill="#EA4335"/>
</svg>
