<svg width="24" height="32" viewBox="0 0 24 32" fill="none" xmlns="http://www.w3.org/2000/svg">
<path d="M20.2743 11.6593C21.3957 11.1622 22.3814 11.3077 23.2339 12.0948C23.8038 12.6216 24.0012 13.347 23.9988 14.1107C23.9963 15.1753 23.9963 17.9314 24 22.38C24.0025 25.3248 22.564 28.0697 20.236 29.7845C17.839 31.5499 14.8399 32.0126 11.9692 31.1354C9.89537 30.5013 8.22127 29.2516 6.94688 27.3863C4.68062 24.0689 2.53278 20.9354 0.505853 17.9856C0.0678975 17.3491 -0.0863125 16.6841 0.0456909 15.9908C0.482413 13.6937 3.36305 13.199 4.67445 15.0495C5.47017 16.1721 6.26589 17.3034 7.06038 18.4433C7.08505 18.4791 7.11836 18.5001 7.16031 18.5063C7.43788 18.5494 7.57729 18.4236 7.57729 18.1287C7.58099 13.2668 7.58099 8.09279 7.57976 2.60909C7.57852 1.90096 7.80182 1.30633 8.24964 0.825194C9.84109 -0.888384 12.6119 0.249066 12.6255 2.56468C12.6354 4.28813 12.6366 6.05105 12.6292 7.85469C12.6292 7.88306 12.6588 7.90033 12.6835 7.88799C14.0763 7.16383 15.6468 7.76463 16.2463 9.19323C16.2661 9.24134 16.2982 9.25244 16.3426 9.22653C17.1358 8.77624 17.9118 8.72073 18.673 9.05875C19.7068 9.51645 20.2188 10.3702 20.2101 11.6174C20.2089 11.6655 20.2311 11.6791 20.2743 11.6593Z" fill="#2EB489"/>
</svg>
