<svg width="95" height="109" viewBox="0 0 115 109" fill="none" xmlns="http://www.w3.org/2000/svg">
<g clip-path="url(#clip0_126_49)">
<path d="M33.8326 174.76C32.2062 175.076 30.6314 174.014 30.3153 172.387L1.8873 26.1382C1.57116 24.5117 2.63334 22.937 4.25975 22.6208L82.8916 7.33636C84.5181 7.02021 86.0928 8.0824 86.409 9.70881L114.837 155.958C115.153 157.584 114.091 159.159 112.464 159.475L33.8326 174.76Z" fill="#68C692"/>
<path d="M30.3153 172.387C30.6314 174.014 32.2062 175.076 33.8326 174.76L112.464 159.475C114.091 159.159 115.153 157.584 114.837 155.958L86.4289 9.81157C86.1051 8.14558 84.4661 7.07712 82.8069 7.43395C79.8637 8.0669 75.3564 8.98742 71.9751 9.45833C60.6305 11.0382 53.477 5.89171 42.2615 8.21702C31.8246 10.3809 24.4682 17.976 14.1622 20.696C10.6788 21.6154 6.99308 22.2979 4.46705 22.715C2.76081 22.9967 1.59364 24.6274 1.92361 26.325L30.3153 172.387ZM104.742 149.149C105.058 150.775 103.996 152.35 102.369 152.666L40.6418 164.665C39.0154 164.981 37.4406 163.919 37.1245 162.292L11.9824 32.9474C11.6663 31.321 12.7284 29.7462 14.3549 29.4301L76.0824 17.4315C77.7088 17.1153 79.2836 18.1775 79.5997 19.8039L104.742 149.149Z" fill="#68C692"/>
<path d="M58.9446 139.18C59.3803 141.422 60.6887 143.399 62.5819 144.676C64.4751 145.953 66.798 146.425 69.0397 145.99C71.2813 145.554 73.2581 144.245 74.535 142.352C75.812 140.459 76.2846 138.136 75.8489 135.894C75.4131 133.653 74.1048 131.676 72.2116 130.399C70.3184 129.122 67.9954 128.65 65.7538 129.085C63.5121 129.521 61.5354 130.829 60.2584 132.723C58.9814 134.616 58.5088 136.939 58.9446 139.18ZM40.8723 46.2065C41.308 48.4482 42.6164 50.4249 44.5096 51.7019C46.4028 52.9789 48.7257 53.4515 50.9674 53.0157C53.209 52.58 55.1858 51.2716 56.4628 49.3784C57.7397 47.4852 58.2123 45.1623 57.7766 42.9206C57.3409 40.679 56.0325 38.7022 54.1393 37.4253C52.2461 36.1483 49.9232 35.6757 47.6815 36.1114C45.4399 36.5472 43.4631 37.8555 42.1861 39.7487C40.9091 41.6419 40.4365 43.9649 40.8723 46.2065ZM33.0041 95.9793C34.3113 102.704 38.2364 108.635 43.916 112.465C49.5956 116.296 56.5644 117.714 63.2894 116.407C70.0143 115.1 75.9446 111.175 79.7755 105.495C83.6065 99.8155 85.0243 92.8466 83.7171 86.1217C82.4099 79.3967 78.4847 73.4665 72.8051 69.6355C67.1255 65.8046 60.1567 64.3868 53.4318 65.694C46.7068 67.0012 40.7766 70.9263 36.9456 76.6059C33.1147 82.2855 31.6969 89.2543 33.0041 95.9793ZM67.6856 14.68C66.6901 16.7111 66.2941 19.0511 66.7583 21.4389C67.8927 27.2751 73.5409 31.0849 79.3771 29.9504C81.7691 29.4855 83.7896 28.2375 85.2999 26.5536L82.4346 11.8131L67.6856 14.68ZM92.2195 152.448C92.6836 154.836 93.9316 156.856 95.6112 158.368L110.36 155.501L107.495 140.76C105.464 139.765 103.123 139.364 100.731 139.829C94.8948 140.964 91.0851 146.612 92.2195 152.448ZM49.0356 167.421C50.0268 165.391 50.427 163.05 49.9629 160.662C48.8285 154.826 43.1802 151.016 37.344 152.151C34.9563 152.615 32.9358 153.863 31.4247 155.542L34.2908 170.287L49.0356 167.421ZM19.6453 31.6327C22.0486 29.9852 24.0984 27.1504 22.2364 24.9092V24.9092C21.5652 24.1014 20.4995 23.852 19.4686 24.0524L7.63313 26.353C6.93049 26.4896 6.4716 27.1699 6.60818 27.8725L9.00917 40.2246C9.14633 40.9302 9.57849 41.5345 10.2523 41.7848V41.7848C13.1067 42.8452 14.8992 39.477 15.8335 36.5789C16.4598 34.6362 17.7832 32.9092 19.6453 31.6327Z" fill="#2FBB6E"/>
<path d="M21.8687 190.792C20.2118 190.792 18.8687 189.449 18.8687 187.792L18.8687 38.8055C18.8687 37.1486 20.2118 35.8055 21.8687 35.8055H101.972C103.629 35.8055 104.972 37.1486 104.972 38.8055L104.972 187.792C104.972 189.449 103.629 190.792 101.972 190.792H21.8687Z" fill="#AAE0C3"/>
<path d="M18.8687 187.792C18.8687 189.449 20.2118 190.792 21.8687 190.792H101.972C103.629 190.792 104.972 189.449 104.972 187.792L104.972 38.9101C104.972 37.213 103.567 35.8514 101.87 35.8851C98.8606 35.9448 94.2605 35.9884 90.8514 35.8055C79.4138 35.1917 73.3737 28.7748 61.9206 28.9173C51.2626 29.05 42.5921 35.1019 31.9565 35.8055C28.3616 36.0433 24.6134 36.01 22.0542 35.9374C20.3255 35.8884 18.8687 37.2664 18.8687 38.9958L18.8687 187.792ZM96.3619 179.182C96.3619 180.838 95.0188 182.182 93.3619 182.182H30.479C28.8222 182.182 27.479 180.838 27.479 179.182L27.479 47.4158C27.479 45.759 28.8222 44.4158 30.479 44.4158H93.3619C95.0188 44.4158 96.3619 45.759 96.3619 47.4158L96.3619 179.182Z" fill="#AAE0C3"/>
<path d="M53.3081 160.658C53.3081 162.942 54.2153 165.132 55.8301 166.746C57.4448 168.361 59.6349 169.268 61.9185 169.268C64.2021 169.268 66.3922 168.361 68.007 166.746C69.6217 165.132 70.5289 162.942 70.5289 160.658C70.5289 158.374 69.6217 156.184 68.007 154.569C66.3922 152.955 64.2021 152.048 61.9185 152.048C59.6349 152.048 57.4448 152.955 55.8301 154.569C54.2153 156.184 53.3081 158.374 53.3081 160.658ZM53.3081 65.9439C53.3081 68.2276 54.2153 70.4176 55.8301 72.0324C57.4448 73.6472 59.6349 74.5543 61.9185 74.5543C64.2021 74.5543 66.3922 73.6472 68.007 72.0324C69.6217 70.4176 70.5289 68.2276 70.5289 65.9439C70.5289 63.6603 69.6217 61.4702 68.007 59.8555C66.3922 58.2407 64.2021 57.3336 61.9185 57.3336C59.6349 57.3336 57.4448 58.2407 55.8301 59.8555C54.2153 61.4702 53.3081 63.6603 53.3081 65.9439ZM36.0874 113.301C36.0874 120.152 38.8089 126.722 43.6532 131.566C48.4974 136.411 55.0677 139.132 61.9185 139.132C68.7693 139.132 75.3396 136.411 80.1838 131.566C85.0281 126.722 87.7496 120.152 87.7496 113.301C87.7496 106.45 85.0281 99.8799 80.1838 95.0356C75.3396 90.1913 68.7693 87.4698 61.9185 87.4698C55.0677 87.4698 48.4974 90.1913 43.6532 95.0356C38.8089 99.8799 36.0874 106.45 36.0874 113.301ZM85.6444 40.1129C84.2796 41.9167 83.4444 44.1382 83.4444 46.5706C83.4444 52.5161 88.2619 57.3336 94.2074 57.3336C96.6441 57.3336 98.8656 56.4941 100.669 55.1293V40.1129H85.6444ZM83.4401 180.031C83.4401 182.464 84.2796 184.685 85.6401 186.489H100.665V171.473C98.8613 170.108 96.6398 169.268 94.2031 169.268C88.2576 169.268 83.4401 174.086 83.4401 180.031ZM38.1927 186.489C39.5531 184.685 40.3926 182.464 40.3926 180.031C40.3926 174.086 35.5751 169.268 29.6296 169.268C27.1972 169.268 24.9757 170.108 23.1719 171.468V186.489H38.1927ZM35.252 47.5876C37.9255 46.4289 40.4785 44.0373 39.0784 41.482V41.482C38.5737 40.561 37.5752 40.1129 36.525 40.1129H24.4679C23.7521 40.1129 23.1719 40.6931 23.1719 41.4089L23.1719 53.9921C23.1719 54.711 23.4808 55.3866 24.0945 55.7609V55.7609C26.694 57.3464 29.0964 54.3822 30.5664 51.7156C31.5519 49.9281 33.1805 48.4853 35.252 47.5876Z" fill="#2FBB6E"/>
</g>
<defs>
<clipPath id="clip0_126_49">
<rect width="115" height="109" fill="white"/>
</clipPath>
</defs>
</svg>
