<svg width="497" height="150" viewBox="0 0 497 150" fill="none" xmlns="http://www.w3.org/2000/svg">
<path d="M10.0417 0C4.87291 0 0.666656 4.20625 0.666656 9.375V73.9583C0.666656 79.1271 4.87291 83.3333 10.0417 83.3333H57.9583C63.1271 83.3333 67.3333 79.1271 67.3333 73.9583V33.3333H43.375C38.2062 33.3333 34 29.1271 34 23.9583V0H10.0417ZM40.25 1.83105V23.9583C40.25 25.6812 41.6521 27.0833 43.375 27.0833H65.5023L40.25 1.83105ZM16.2917 41.6667H51.7083C53.4333 41.6667 54.8333 43.0646 54.8333 44.7917C54.8333 46.5187 53.4333 47.9167 51.7083 47.9167H16.2917C14.5667 47.9167 13.1667 46.5187 13.1667 44.7917C13.1667 43.0646 14.5667 41.6667 16.2917 41.6667ZM16.2917 54.1667H35.0417C36.7667 54.1667 38.1667 55.5646 38.1667 57.2917C38.1667 59.0187 36.7667 60.4167 35.0417 60.4167H16.2917C14.5667 60.4167 13.1667 59.0187 13.1667 57.2917C13.1667 55.5646 14.5667 54.1667 16.2917 54.1667ZM47.5417 54.1667H51.7083C53.4333 54.1667 54.8333 55.5646 54.8333 57.2917C54.8333 59.0187 53.4333 60.4167 51.7083 60.4167H47.5417C45.8167 60.4167 44.4167 59.0187 44.4167 57.2917C44.4167 55.5646 45.8167 54.1667 47.5417 54.1667ZM16.2917 66.6667H35.0417C36.7667 66.6667 38.1667 68.0646 38.1667 69.7917C38.1667 71.5187 36.7667 72.9167 35.0417 72.9167H16.2917C14.5667 72.9167 13.1667 71.5187 13.1667 69.7917C13.1667 68.0646 14.5667 66.6667 16.2917 66.6667ZM47.5417 66.6667H51.7083C53.4333 66.6667 54.8333 68.0646 54.8333 69.7917C54.8333 71.5187 53.4333 72.9167 51.7083 72.9167H47.5417C45.8167 72.9167 44.4167 71.5187 44.4167 69.7917C44.4167 68.0646 45.8167 66.6667 47.5417 66.6667Z" fill="#33C173"/>
<path d="M249.925 17.25L229.541 72.914C227.875 77.52 224.739 78.5 219.741 78.5C214.743 78.5 211.607 77.52 209.941 72.914L190.145 17.25C189.459 15.388 189.165 13.82 189.165 12.546C189.165 7.156 193.281 5.392 197.299 5.392C201.611 5.392 203.963 7.646 205.433 12.448L219.937 60.468H220.133L235.225 12.448C236.695 7.646 239.047 5.392 242.771 5.392C246.789 5.392 250.905 7.156 250.905 12.546C250.905 13.82 250.611 15.388 249.925 17.25Z" fill="#33C173"/>
<path fill-rule="evenodd" clip-rule="evenodd" d="M254.994 41.064C254.994 20.386 267.538 5 290.666 5C313.794 5 326.338 20.386 326.338 41.064C326.338 60.958 314.774 78.892 290.666 78.892C265.382 78.892 254.994 62.428 254.994 41.064ZM290.666 65.956C275.574 65.956 271.066 54.588 271.066 41.064C271.066 27.54 277.534 17.936 290.666 17.936C303.798 17.936 310.266 27.54 310.266 41.064C310.266 54.588 305.268 65.956 290.666 65.956Z" fill="#33C173"/>
<path d="M338.137 70.464V13.428C338.137 8.626 341.273 5.392 346.173 5.392C351.073 5.392 354.209 8.626 354.209 13.428V70.464C354.209 75.266 351.073 78.5 346.173 78.5C341.273 78.5 338.137 75.266 338.137 70.464Z" fill="#33C173"/>
<path d="M366.891 41.946C366.891 22.052 378.651 5 401.387 5C419.811 5 429.905 16.564 429.905 23.424C429.905 27.932 427.455 30.676 422.653 30.676C413.343 30.676 416.087 17.936 401.387 17.936C391.293 17.936 382.963 26.658 382.963 41.946C382.963 54.784 388.059 65.956 401.975 65.956C414.617 65.956 414.323 52.432 422.065 52.432C425.985 52.432 429.905 54.686 429.905 58.606C429.905 68.798 417.557 78.892 401.975 78.892C379.925 78.892 366.891 66.25 366.891 41.946Z" fill="#33C173"/>
<path d="M440.262 67.818V16.074C440.262 8.92 443.986 6.666 449.67 6.666H487.4C492.104 6.666 495.534 8.038 495.534 13.134C495.534 18.23 492.104 19.602 487.4 19.602H456.334V34.89H483.578C487.792 34.89 491.124 36.066 491.124 41.064C491.124 46.062 487.792 47.238 483.578 47.238H456.334V64.29H488.184C492.888 64.29 496.318 65.662 496.318 70.758C496.318 75.854 492.888 77.226 488.184 77.226H449.67C443.986 77.226 440.262 74.972 440.262 67.818Z" fill="#33C173"/>
<path d="M119.162 70.758V14.8C119.162 8.136 122.396 5.392 129.256 5.392C132.588 5.392 135.528 6.666 137.292 9.606L165.418 54.98H165.614V13.134C165.614 7.94 168.554 5.392 173.356 5.392C178.158 5.392 181.098 7.94 181.098 13.134V68.504C181.098 74.874 178.354 78.5 171.592 78.5C166.496 78.5 164.83 77.422 162.772 74.188L134.842 30.088H134.646V70.758C134.646 75.952 131.706 78.5 126.904 78.5C122.102 78.5 119.162 75.952 119.162 70.758Z" fill="#33C173"/>
<path d="M88.448 70.464V13.428C88.448 8.626 91.584 5.392 96.484 5.392C101.384 5.392 104.52 8.626 104.52 13.428V70.464C104.52 75.266 101.384 78.5 96.484 78.5C91.584 78.5 88.448 75.266 88.448 70.464Z" fill="#33C173"/>
</svg>
