<svg width="20" height="19" viewBox="0 0 24 24" fill="none" xmlns="http://www.w3.org/2000/svg">
<path d="M0 0V19.6364C0 20.8418 1.02286 21.8182 2.28571 21.8182H11.067C10.5721 20.8255 10.2857 19.7182 10.2857 18.5455C10.2857 18.1745 10.3235 17.8113 10.3772 17.4545H3.42857V15.2727H11.067C12.3515 12.6949 15.0971 10.9091 18.2857 10.9091C19.08 10.9091 19.8469 11.0246 20.5714 11.2308V0H18.2857C18.2857 0.602182 17.7737 1.09091 17.1429 1.09091C16.512 1.09091 16 0.602182 16 0H13.7143C13.7143 0.602182 13.2023 1.09091 12.5714 1.09091C11.9406 1.09091 11.4286 0.602182 11.4286 0H9.14286C9.14286 0.602182 8.63086 1.09091 8 1.09091C7.36914 1.09091 6.85714 0.602182 6.85714 0H4.57143C4.57143 0.602182 4.05943 1.09091 3.42857 1.09091C2.79771 1.09091 2.28571 0.602182 2.28571 0H0ZM3.42857 5.45455H17.1429V7.63636H3.42857V5.45455ZM3.42857 10.9091H12.5714V13.0909H3.42857V10.9091ZM18.2857 13.0909C15.1303 13.0909 12.5714 15.5335 12.5714 18.5455C12.5714 21.5575 15.1303 24 18.2857 24C21.4411 24 24 21.5575 24 18.5455C24 15.5335 21.4411 13.0909 18.2857 13.0909ZM20.6295 15.9822L22.2277 17.5099L17.7143 21.8182L14.3438 18.6009L15.942 17.0732L17.7143 18.7628L20.6295 15.9822Z" fill="white"/>
</svg>
