<svg width="20" height="19" viewBox="0 0 24 24" fill="none" xmlns="http://www.w3.org/2000/svg">
<path d="M14.4259 16.8179V12.5934H16.2292V15.8218L19.1624 17.4361L18.2608 18.9244L14.4259 16.8179ZM19.8356 1.71728L18.0324 0L16.2292 1.71728L14.4259 0L12.6227 1.71728L10.8194 0L9.0162 1.71728L7.21296 0L5.40972 1.71728L3.60648 0L1.80324 1.71728L0 0V22.897L1.80324 21.1797L3.60648 22.897L5.40972 21.1797L7.21296 22.897L9.11237 21.0882C9.28068 21.3057 9.47302 21.5003 9.67739 21.6949C11.2545 23.1744 13.3803 24.0026 15.5941 24C17.8079 23.9974 19.9315 23.1642 21.5048 21.681C23.0781 20.1978 23.9744 18.1839 23.9995 16.0758C24.0246 13.9676 23.1765 11.935 21.6389 10.4181V0L19.8356 1.71728ZM9.7375 10.3037C9.0162 10.9562 8.45119 11.7347 8.01841 12.5934H3.60648V10.3037H9.7375ZM7.29711 14.8831C7.21296 15.2609 7.21296 15.6387 7.21296 16.0279C7.21296 16.4172 7.21296 16.795 7.29711 17.1728H3.60648V14.8831H7.29711ZM18.0324 8.01396H3.60648V5.72425H18.0324V8.01396ZM21.4586 16.0279C21.4586 16.7606 21.3143 17.4819 21.0378 18.1573C20.7252 18.8213 20.2925 19.4625 19.7515 19.9547C19.2346 20.4699 18.5614 20.8821 17.8641 21.1797C17.1548 21.4431 16.3975 21.5804 15.6281 21.5804C12.4063 21.5804 9.7976 19.0961 9.7976 16.0279C9.7976 14.5511 10.4107 13.1658 11.5047 12.1011C12.6227 11.0593 14.0773 10.4754 15.6281 10.4754C18.8378 10.4754 21.4586 12.9597 21.4586 16.0279Z" fill="white"/>
</svg>
