<svg width="95" height="112" viewBox="0 0 118 112" fill="none" xmlns="http://www.w3.org/2000/svg">
<rect x="14.6643" y="14.6838" width="82" height="81.9361" rx="4" fill="url(#paint0_linear_129_74)"/>
<path d="M40.4633 29.9179C39.8753 29.2067 38.7944 29.1969 38.2207 29.8975V29.8975L27.1815 43.3583C26.3852 44.3293 27.0957 45.8107 28.3633 45.8227L32.2596 45.8593C33.088 45.8671 33.7661 46.545 33.7742 47.3734L33.9367 63.9742C33.9448 64.8025 34.6229 65.4804 35.4513 65.4882L43.929 65.568C44.7573 65.5757 45.4223 64.9105 45.4142 64.0821L45.2518 47.4814C45.2437 46.653 45.9086 45.9877 46.737 45.9955L50.6335 46.0322C51.9011 46.0441 52.5827 44.5758 51.7674 43.5897L40.4633 29.9179ZM38.9904 33.4656C39.1881 33.2247 39.56 33.2282 39.7623 33.4729L47.1456 42.4016C47.4174 42.7303 47.1902 43.2197 46.7676 43.2158L43.8404 43.1882C43.012 43.1804 42.3471 43.8457 42.3552 44.674L42.5274 62.2748C42.5301 62.5509 42.3084 62.7727 42.0323 62.7701L37.2935 62.7255C37.0174 62.7229 36.7913 62.4969 36.7886 62.2208L36.6164 44.6201C36.6083 43.7917 35.9302 43.1138 35.1018 43.106L32.1746 43.0785C31.752 43.0745 31.5152 42.5807 31.7806 42.257L38.9904 33.4656Z" fill="#2FBB6E"/>
<path d="M38.9904 33.4656C39.1881 33.2247 39.56 33.2282 39.7623 33.4729L47.1456 42.4016C47.4174 42.7303 47.1902 43.2197 46.7676 43.2158L43.8404 43.1882C43.012 43.1804 42.3471 43.8457 42.3552 44.674L42.5274 62.2748C42.5301 62.5509 42.3084 62.7727 42.0323 62.7701L37.2935 62.7255C37.0174 62.7229 36.7913 62.4969 36.7886 62.2208L36.6164 44.6201C36.6083 43.7917 35.9302 43.1138 35.1018 43.106L32.1746 43.0785C31.752 43.0745 31.5152 42.5807 31.7806 42.257L38.9904 33.4656Z" fill="#2FBB6E"/>
<path d="M71.7736 30.2123C71.1856 29.5011 70.1047 29.4913 69.531 30.192V30.192L58.4918 43.6528C57.6955 44.6237 58.406 46.1052 59.6736 46.1171L63.5699 46.1538C64.3983 46.1616 65.0764 46.8394 65.0845 47.6678L65.247 64.2686C65.2551 65.097 65.9332 65.7748 66.7616 65.7826L75.2393 65.8624C76.0676 65.8702 76.7326 65.205 76.7245 64.3766L76.5621 47.7758C76.554 46.9474 77.2189 46.2822 78.0473 46.29L81.9438 46.3266C83.2114 46.3386 83.893 44.8702 83.0777 43.8841L71.7736 30.2123ZM70.3007 33.7601C70.4984 33.5191 70.8703 33.5226 71.0726 33.7673L78.4559 42.696C78.7277 43.0247 78.5005 43.5142 78.0779 43.5102L75.1507 43.4827C74.3223 43.4749 73.6574 44.1401 73.6655 44.9685L73.8377 62.5692C73.8404 62.8453 73.6187 63.0671 73.3426 63.0645L68.6038 63.0199C68.3277 63.0173 68.1016 62.7914 68.0989 62.5152L67.9267 44.9145C67.9186 44.0861 67.2405 43.4082 66.4121 43.4004L63.4849 43.3729C63.0623 43.3689 62.8255 42.8751 63.0909 42.5515L70.3007 33.7601Z" fill="#2FBB6E"/>
<path d="M70.3007 33.7601C70.4984 33.5191 70.8703 33.5226 71.0726 33.7673L78.4559 42.696C78.7277 43.0247 78.5005 43.5142 78.0779 43.5102L75.1507 43.4827C74.3223 43.4749 73.6574 44.1401 73.6655 44.9685L73.8377 62.5692C73.8404 62.8453 73.6187 63.0671 73.3426 63.0645L68.6038 63.0199C68.3277 63.0173 68.1016 62.7914 68.0989 62.5152L67.9267 44.9145C67.9186 44.0861 67.2405 43.4082 66.4121 43.4004L63.4849 43.3729C63.0623 43.3689 62.8255 42.8751 63.0909 42.5515L70.3007 33.7601Z" fill="#2FBB6E"/>
<rect x="28.9999" y="36.9314" width="82" height="66" rx="4" fill="url(#paint1_linear_129_74)"/>
<path d="M54.7989 52.1654C54.2108 51.4543 53.13 51.4444 52.5563 52.1451V52.1451L41.517 65.6059C40.7208 66.5768 41.4313 68.0583 42.6989 68.0702L46.5952 68.1069C47.4236 68.1147 48.1017 68.7925 48.1098 69.6209L48.2722 86.2217C48.2803 87.0501 48.9584 87.728 49.7868 87.7358L58.2645 87.8155C59.0929 87.8233 59.7579 87.1581 59.7498 86.3297L59.5873 69.7289C59.5792 68.9005 60.2442 68.2353 61.0726 68.2431L64.9691 68.2798C66.2367 68.2917 66.9183 66.8234 66.103 65.8373L54.7989 52.1654ZM53.326 55.7132C53.5236 55.4722 53.8955 55.4757 54.0979 55.7205L61.4811 64.6491C61.7529 64.9778 61.5257 65.4673 61.1032 65.4633L58.176 65.4358C57.3476 65.428 56.6826 66.0932 56.6907 66.9216L56.863 84.5223C56.8657 84.7985 56.644 85.0202 56.3679 85.0176L51.6291 84.973C51.3529 84.9704 51.1269 84.7445 51.1242 84.4684L50.952 66.8676C50.9439 66.0392 50.2657 65.3614 49.4373 65.3536L46.5101 65.326C46.0876 65.3221 45.8508 64.8282 46.1162 64.5046L53.326 55.7132Z" fill="#2FBB6E"/>
<path d="M53.326 55.7132C53.5236 55.4722 53.8955 55.4757 54.0979 55.7205L61.4811 64.6491C61.7529 64.9778 61.5257 65.4673 61.1032 65.4633L58.176 65.4358C57.3476 65.428 56.6826 66.0932 56.6907 66.9216L56.863 84.5223C56.8657 84.7985 56.644 85.0202 56.3679 85.0176L51.6291 84.973C51.3529 84.9704 51.1269 84.7445 51.1242 84.4684L50.952 66.8676C50.9439 66.0392 50.2657 65.3614 49.4373 65.3536L46.5101 65.326C46.0876 65.3221 45.8508 64.8282 46.1162 64.5046L53.326 55.7132Z" fill="#2FBB6E"/>
<path d="M86.1092 52.4599C85.5211 51.7487 84.4403 51.7389 83.8666 52.4395V52.4395L72.8273 65.9003C72.0311 66.8713 72.7416 68.3527 74.0092 68.3647L77.9055 68.4013C78.7339 68.4091 79.412 69.087 79.4201 69.9154L79.5825 86.5161C79.5906 87.3445 80.2688 88.0224 81.0971 88.0302L89.5748 88.1099C90.4032 88.1177 91.0682 87.4525 91.0601 86.6241L90.8976 70.0233C90.8895 69.195 91.5545 68.5297 92.3829 68.5375L96.2794 68.5742C97.547 68.5861 98.2286 67.1178 97.4133 66.1317L86.1092 52.4599ZM84.6363 56.0076C84.8339 55.7667 85.2058 55.7702 85.4082 56.0149L92.7914 64.9436C93.0633 65.2723 92.836 65.7617 92.4135 65.7578L89.4863 65.7302C88.6579 65.7224 87.9929 66.3876 88.001 67.216L88.1733 84.8168C88.176 85.0929 87.9543 85.3146 87.6782 85.3121L82.9394 85.2675C82.6632 85.2649 82.4372 85.0389 82.4345 84.7628L82.2623 67.162C82.2542 66.3337 81.576 65.6558 80.7477 65.648L77.8204 65.6205C77.3979 65.6165 77.1611 65.1227 77.4265 64.799L84.6363 56.0076Z" fill="#2FBB6E"/>
<path d="M84.6363 56.0076C84.8339 55.7667 85.2058 55.7702 85.4082 56.0149L92.7914 64.9436C93.0633 65.2723 92.836 65.7617 92.4135 65.7578L89.4863 65.7302C88.6579 65.7224 87.9929 66.3876 88.001 67.216L88.1733 84.8168C88.176 85.0929 87.9543 85.3146 87.6782 85.3121L82.9394 85.2675C82.6632 85.2649 82.4372 85.0389 82.4345 84.7628L82.2623 67.162C82.2542 66.3337 81.576 65.6558 80.7477 65.648L77.8204 65.6205C77.3979 65.6165 77.1611 65.1227 77.4265 64.799L84.6363 56.0076Z" fill="#2FBB6E"/>
<defs>
<linearGradient id="paint0_linear_129_74" x1="55.6643" y1="14.6838" x2="55.6643" y2="96.6199" gradientUnits="userSpaceOnUse">
<stop stop-color="#6BCA95"/>
<stop offset="1" stop-color="#78DFA6" stop-opacity="0"/>
</linearGradient>
<linearGradient id="paint1_linear_129_74" x1="69.9999" y1="36.9314" x2="69.9999" y2="102.931" gradientUnits="userSpaceOnUse">
<stop stop-color="#B6EACE"/>
<stop offset="1" stop-color="#B6EACE" stop-opacity="0.67"/>
</linearGradient>
</defs>
</svg>
