<svg width="20" height="19" viewBox="0 0 20 19" fill="none" xmlns="http://www.w3.org/2000/svg">
<path fill-rule="evenodd" clip-rule="evenodd" d="M2.75 -4.00543e-05L15.75 -4.00543e-05C16.6783 -4.00543e-05 17.5685 0.368708 18.2249 1.02509C18.8813 1.68146 19.25 2.5717 19.25 3.49996L19.25 16.557C19.25 17.624 18.194 18.301 17.265 17.979C17.132 17.933 17.002 17.866 16.878 17.777L16.703 17.652C16.2773 17.3499 15.7681 17.1881 15.2462 17.189C14.7243 17.1899 14.2156 17.3535 13.791 17.657C13.195 18.0811 12.4816 18.3091 11.75 18.3091C11.0184 18.3091 10.305 18.0811 9.709 17.657C9.28438 17.3535 8.77572 17.1899 8.2538 17.189C7.73188 17.1881 7.22266 17.3499 6.797 17.652L6.622 17.777C5.629 18.487 4.25 17.777 4.25 16.557L4.25 8.99996H0.75C0.551088 8.99996 0.360322 8.92094 0.219669 8.78029C0.0790171 8.63964 0 8.44887 0 8.24996L0 2.74996C0 2.02061 0.289731 1.32114 0.805456 0.805416C1.32118 0.289691 2.02065 -4.00543e-05 2.75 -4.00543e-05ZM4 7.49996V2.74996C4 2.41844 3.8683 2.1005 3.63388 1.86608C3.39946 1.63166 3.08152 1.49996 2.75 1.49996C2.41848 1.49996 2.10054 1.63166 1.86612 1.86608C1.6317 2.1005 1.5 2.41844 1.5 2.74996L1.5 7.49996H4ZM8.25 11.75C8.25 11.9489 8.32902 12.1396 8.46967 12.2803C8.61032 12.4209 8.80109 12.5 9 12.5H15C15.1989 12.5 15.3897 12.4209 15.5303 12.2803C15.671 12.1396 15.75 11.9489 15.75 11.75C15.75 11.551 15.671 11.3603 15.5303 11.2196C15.3897 11.079 15.1989 11 15 11H9C8.80109 11 8.61032 11.079 8.46967 11.2196C8.32902 11.3603 8.25 11.551 8.25 11.75ZM9.25 8.74996C9.25 8.94887 9.32902 9.13964 9.46967 9.28029C9.61032 9.42094 9.80109 9.49996 10 9.49996L15 9.49996C15.1989 9.49996 15.3897 9.42094 15.5303 9.28029C15.671 9.13964 15.75 8.94887 15.75 8.74996C15.75 8.55105 15.671 8.36028 15.5303 8.21963C15.3897 8.07898 15.1989 7.99996 15 7.99996L10 7.99996C9.80109 7.99996 9.61032 8.07898 9.46967 8.21963C9.32902 8.36028 9.25 8.55105 9.25 8.74996ZM9 6.49996C8.80109 6.49996 8.61032 6.42094 8.46967 6.28029C8.32902 6.13964 8.25 5.94887 8.25 5.74996C8.25 5.55105 8.32902 5.36028 8.46967 5.21963C8.61032 5.07898 8.80109 4.99996 9 4.99996L15 4.99996C15.1989 4.99996 15.3897 5.07898 15.5303 5.21963C15.671 5.36028 15.75 5.55105 15.75 5.74996C15.75 5.94887 15.671 6.13964 15.5303 6.28029C15.3897 6.42094 15.1989 6.49996 15 6.49996L9 6.49996Z" fill="white"/>
</svg>
