<svg width="227" height="178" viewBox="0 0 227 178" fill="none" xmlns="http://www.w3.org/2000/svg">
<path d="M205.56 69.8601C206.82 74.6601 211.74 77.5401 216.6 76.2201C221.4 74.9601 224.28 70.0401 222.96 65.1801C221.7 60.3801 216.78 57.5001 211.92 58.8201C207.18 60.1401 204.3 65.0601 205.56 69.8601Z" fill="#2A4C87"/>
<path d="M193.38 79.4599C196.62 78.5599 198.6 75.1999 197.7 71.9599C196.8 68.7199 193.44 66.7399 190.2 67.6399C186.96 68.5399 184.98 71.8999 185.88 75.1399C186.72 78.3799 190.08 80.2999 193.38 79.4599Z" fill="#2A4C87"/>
<path d="M175.38 82.58C177.78 81.92 179.22 79.46 178.56 77.06C177.9 74.66 175.44 73.22 173.04 73.88C170.64 74.54 169.2 77 169.86 79.4C170.52 81.8 172.98 83.24 175.38 82.58Z" fill="#2A4C87"/>
<path d="M161.4 84.68C162.9 84.26 163.8 82.7 163.44 81.2C163.08 79.7 161.46 78.8 159.96 79.16C158.46 79.58 157.56 81.14 157.92 82.64C158.28 84.14 159.84 85.04 161.4 84.68Z" fill="#2E4E88"/>
<path d="M198.9 51.6199C201.18 55.5199 206.16 56.8999 210.06 54.6199C213.96 52.3399 215.34 47.3599 213.06 43.4599C210.78 39.5599 205.8 38.1799 201.9 40.4599C198 42.7399 196.62 47.7199 198.9 51.6199Z" fill="#1F3D70"/>
<path d="M180.84 62C182.4 64.76 185.88 65.66 188.64 64.1C191.4 62.54 192.3 59.06 190.74 56.3C189.18 53.54 185.7 52.64 182.94 54.2C180.24 55.76 179.28 59.24 180.84 62Z" fill="#1F3D70"/>
<path d="M168 64.7C166.02 65.84 165.36 68.3 166.5 70.28C167.64 72.26 170.1 72.92 172.08 71.78C174.06 70.64 174.72 68.18 173.58 66.2C172.5 64.28 169.98 63.62 168 64.7Z" fill="#1F3D70"/>
<path d="M156.54 72.9799C155.28 73.6999 154.8 75.3199 155.52 76.5799C156.24 77.8399 157.86 78.3199 159.12 77.5999C160.38 76.8799 160.86 75.2599 160.14 73.9999C159.42 72.7399 157.8 72.2599 156.54 72.9799Z" fill="#1F3D70"/>
<path d="M198 35.6001C200.88 32.7201 200.88 28.1001 198 25.2201C195.12 22.3401 190.5 22.3401 187.62 25.2201C184.74 28.1001 184.74 32.7201 187.62 35.6001C190.44 38.4801 195.12 38.4801 198 35.6001Z" fill="#194C88"/>
<path d="M180.06 43.0999C177.96 40.9999 174.6 40.9999 172.56 43.0999C170.46 45.1999 170.46 48.5599 172.56 50.5999C174.66 52.6999 178.02 52.6999 180.06 50.5999C182.16 48.4999 182.16 45.1399 180.06 43.0999Z" fill="#194C88"/>
<path d="M160.86 57.0799C159.42 58.5199 159.42 60.8599 160.86 62.2999C162.3 63.7399 164.64 63.7399 166.08 62.2999C167.52 60.8599 167.52 58.5199 166.08 57.1399C164.64 55.6399 162.3 55.6399 160.86 57.0799Z" fill="#194C88"/>
<path d="M151.8 71.3599C152.76 72.3199 154.32 72.3199 155.28 71.3599C156.24 70.3999 156.24 68.8399 155.28 67.8799C154.32 66.9199 152.76 66.9199 151.8 67.8799C150.84 68.8399 150.84 70.3999 151.8 71.3599Z" fill="#194C88"/>
<path d="M172.14 23.2401C175.44 25.1601 179.7 24.0201 181.62 20.7201C183.54 17.4201 182.4 13.1601 179.1 11.2401C175.8 9.32008 171.54 10.4601 169.62 13.7601C167.64 17.0601 168.78 21.3201 172.14 23.2401Z" fill="#3468A3"/>
<path d="M159.72 34.94C158.34 37.28 159.18 40.28 161.52 41.66C163.86 43.04 166.86 42.2 168.24 39.86C169.62 37.52 168.78 34.52 166.44 33.14C164.04 31.76 161.04 32.6 159.72 34.94Z" fill="#3468A3"/>
<path d="M156.48 50.2999C154.92 49.3999 152.94 49.9399 152.04 51.4999C151.14 53.0599 151.68 55.0399 153.24 55.9399C154.8 56.8399 156.78 56.2999 157.68 54.7399C158.58 53.1799 158.04 51.1999 156.48 50.2999Z" fill="#3468A3"/>
<path d="M148.92 63.3801C147.84 62.7801 146.46 63.1401 145.86 64.2201C145.26 65.3001 145.62 66.6801 146.7 67.2801C147.78 67.8801 149.16 67.5201 149.76 66.4401C150.36 65.3601 150 63.9801 148.92 63.3801Z" fill="#3468A3"/>
<path d="M153.9 15.2601C157.38 16.2201 160.98 14.1201 161.88 10.6401C162.84 7.16011 160.74 3.56011 157.26 2.66011C153.78 1.76011 150.18 3.80011 149.28 7.28011C148.32 10.7601 150.42 14.3601 153.9 15.2601Z" fill="#4C8DCB"/>
<path d="M148.38 35.78C150.78 36.44 153.24 35 153.9 32.6C154.56 30.2 153.12 27.74 150.72 27.08C148.32 26.42 145.86 27.86 145.2 30.26C144.6 32.66 145.98 35.12 148.38 35.78Z" fill="#4C8DCB"/>
<path d="M144.06 51.98C145.68 52.4 147.36 51.44 147.78 49.82C148.2 48.2 147.24 46.52 145.62 46.1C144 45.68 142.32 46.64 141.9 48.26C141.48 49.82 142.44 51.5 144.06 51.98Z" fill="#4C8DCB"/>
<path d="M139.26 62.0599C138.96 63.1399 139.62 64.2799 140.7 64.5799C141.78 64.8799 142.92 64.2199 143.22 63.1399C143.52 62.0599 142.86 60.9199 141.78 60.6199C140.64 60.3199 139.5 60.9799 139.26 62.0599Z" fill="#4C8DCB"/>
<path d="M134.1 12.26C137.46 12.26 140.22 9.50002 140.22 6.14002C140.22 2.78002 137.46 0.0200195 134.1 0.0200195C130.74 0.0200195 127.98 2.78002 127.98 6.14002C127.98 9.56002 130.74 12.26 134.1 12.26Z" fill="#3498B3"/>
<path d="M134.1 25.3401C131.82 25.3401 130.02 27.1401 130.02 29.4201C130.02 31.7001 131.82 33.5001 134.1 33.5001C136.38 33.5001 138.18 31.7001 138.18 29.4201C138.18 27.2001 136.38 25.3401 134.1 25.3401Z" fill="#3498B3"/>
<path d="M136.98 47.6C136.98 46.04 135.72 44.72 134.1 44.72C132.48 44.72 131.22 45.98 131.22 47.6C131.22 49.22 132.48 50.48 134.1 50.48C135.72 50.48 136.98 49.16 136.98 47.6Z" fill="#3498B3"/>
<path d="M134.1 59.8401C133.08 59.8401 132.24 60.6801 132.24 61.7001C132.24 62.7201 133.08 63.5601 134.1 63.5601C135.12 63.5601 135.96 62.7201 135.96 61.7001C135.96 60.6801 135.12 59.8401 134.1 59.8401Z" fill="#3498B3"/>
<path d="M114.12 14.5401C117.18 13.7001 118.98 10.5801 118.14 7.52009C117.3 4.46009 114.18 2.66009 111.12 3.50009C108.06 4.34009 106.26 7.46009 107.1 10.5201C107.94 13.5201 111.12 15.3201 114.12 14.5401Z" fill="#0AA496"/>
<path d="M115.14 32.42C115.68 34.4 117.66 35.54 119.64 35C121.62 34.46 122.76 32.48 122.22 30.5C121.68 28.52 119.7 27.38 117.72 27.92C115.8 28.46 114.6 30.5 115.14 32.42Z" fill="#0AA496"/>
<path d="M120.84 49.7599C121.2 51.1999 122.7 52.0399 124.08 51.6199C125.52 51.2599 126.36 49.7599 125.94 48.3799C125.58 46.9399 124.08 46.0999 122.7 46.5199C121.26 46.8799 120.48 48.3199 120.84 49.7599C120.84 49.6999 120.84 49.6999 120.84 49.7599Z" fill="#0AA496"/>
<path d="M125.46 63.08C125.7 63.98 126.6 64.46 127.44 64.22C128.34 63.98 128.82 63.08 128.58 62.24C128.34 61.34 127.44 60.86 126.6 61.1C125.76 61.34 125.22 62.18 125.46 63.08Z" fill="#0AA496"/>
<path d="M95.34 21.9199C97.86 20.4799 98.7601 17.1799 97.3201 14.6599C95.8801 12.1399 92.5801 11.2399 90.0601 12.6799C87.5401 14.1199 86.6401 17.4199 88.0801 19.9399C89.5801 22.5199 92.8201 23.3599 95.34 21.9199Z" fill="#00AA75"/>
<path d="M105.96 40.28C107.52 39.38 108.06 37.4 107.16 35.84C106.26 34.28 104.28 33.74 102.72 34.64C101.16 35.54 100.62 37.52 101.52 39.08C102.36 40.64 104.4 41.18 105.96 40.28Z" fill="#00AA75"/>
<path d="M114.6 55.3401C115.8 54.6801 116.16 53.1801 115.5 51.9801C114.84 50.7801 113.34 50.4201 112.14 51.0801C110.94 51.7401 110.58 53.2401 111.24 54.4401C111.96 55.5801 113.46 56.0001 114.6 55.3401Z" fill="#00AA75"/>
<path d="M121.68 64.6999C121.26 64.0399 120.42 63.7999 119.7 64.1599C119.04 64.5799 118.8 65.4199 119.16 66.1399C119.58 66.7999 120.42 67.0399 121.08 66.6799C121.86 66.2599 122.1 65.3599 121.68 64.6999Z" fill="#00AA75"/>
<path d="M78.9601 33.9801C80.8801 32.0601 80.8801 28.9401 78.9601 27.0201C77.0401 25.1001 73.9201 25.1001 72.0001 27.0201C70.0801 28.9401 70.0801 32.0601 72.0001 33.9801C73.9801 35.9001 77.1001 35.9001 78.9601 33.9801Z" fill="#4FBA6A"/>
<path d="M94.02 44.96C92.88 43.82 91.08 43.82 90 44.96C88.86 46.1 88.86 47.9 90 48.98C91.14 50.12 92.94 50.12 94.02 48.98C95.1 47.84 95.1 46.04 94.02 44.96Z" fill="#4FBA6A"/>
<path d="M106.44 58.2199C105.54 57.3199 104.16 57.3199 103.26 58.2199C102.36 59.1199 102.36 60.4999 103.26 61.3999C104.16 62.2999 105.54 62.2999 106.44 61.3999C107.28 60.4999 107.28 59.1199 106.44 58.2199Z" fill="#4FBA6A"/>
<path d="M115.68 68.9C115.2 68.42 114.42 68.48 114 68.96C113.52 69.44 113.58 70.22 114.06 70.64C114.54 71.06 115.26 71.06 115.74 70.64C116.16 70.16 116.16 69.38 115.68 68.9Z" fill="#4FBA6A"/>
<path d="M60 51.4401C62.16 52.7001 64.92 51.9201 66.12 49.8201C67.38 47.6601 66.6 44.9001 64.5 43.7001C62.34 42.4401 59.58 43.2201 58.38 45.3201C57.12 47.4201 57.84 50.1801 60 51.4401Z" fill="#7EC45F"/>
<path d="M83.7599 57.2001C82.5599 56.5401 81.1199 56.9601 80.3999 58.1001C79.7399 59.3001 80.1599 60.7401 81.2999 61.4601C82.4999 62.1201 83.94 61.7601 84.66 60.5601C85.32 59.3601 84.8999 57.8601 83.7599 57.2001Z" fill="#7EC45F"/>
<path d="M99.3 66.62C98.34 66.08 97.08 66.38 96.54 67.4C96 68.36 96.3 69.62 97.32 70.16C98.28 70.7 99.54 70.3999 100.08 69.4399C100.62 68.4799 100.26 67.22 99.3 66.62Z" fill="#7EC45F"/>
<path d="M217.14 79.1599C211.74 79.1599 207.3 83.5399 207.3 88.9999C207.3 94.3999 211.68 98.8399 217.14 98.8399C222.54 98.8399 226.92 94.4599 226.98 89.0599C226.92 83.5999 222.54 79.1599 217.14 79.1599Z" fill="#4C609B"/>
<path d="M200.88 89C200.88 85.1 197.76 81.98 193.86 81.98C189.96 81.98 186.84 85.1 186.84 89C186.84 92.9 189.96 96.02 193.86 96.02C197.7 96.02 200.88 92.9 200.88 89Z" fill="#4C609B"/>
<path d="M175.68 84.2C173.04 84.2 170.88 86.36 170.88 89C170.88 91.64 173.04 93.7999 175.68 93.7999C178.32 93.7999 180.48 91.64 180.48 89C180.48 86.36 178.32 84.2 175.68 84.2Z" fill="#4C609B"/>
<path d="M164.7 88.9999C164.7 87.2599 163.32 85.8799 161.58 85.8799C159.84 85.8799 158.46 87.2599 158.46 88.9999C158.46 90.7399 159.84 92.1199 161.58 92.1199C163.32 92.1199 164.7 90.7399 164.7 88.9999Z" fill="#54669F"/>
<path d="M216.6 101.72C211.8 100.4 206.88 103.28 205.56 108.08C204.24 112.88 207.12 117.8 211.92 119.12C216.72 120.44 221.64 117.56 222.96 112.76C222.96 112.76 222.96 112.76 222.96 112.7C224.22 107.96 221.34 103.04 216.6 101.72Z" fill="#746FA7"/>
<path d="M190.2 110.3C193.44 111.2 196.8 109.22 197.7 105.98C198.6 102.74 196.62 99.38 193.38 98.48C190.14 97.58 186.78 99.56 185.88 102.8C184.98 106.04 186.9 109.4 190.2 110.3Z" fill="#746FA7"/>
<path d="M173.04 104.06C175.44 104.72 177.9 103.28 178.56 100.88C179.22 98.48 177.78 96.02 175.38 95.36C172.98 94.7 170.52 96.14 169.86 98.54C169.26 100.94 170.64 103.4 173.04 104.06Z" fill="#746FA7"/>
<path d="M159.9 98.8401C161.4 99.2601 162.96 98.3601 163.38 96.8001C163.8 95.3001 162.9 93.7401 161.34 93.3201C159.84 92.9001 158.28 93.8001 157.86 95.3601C157.44 96.8001 158.34 98.4201 159.9 98.8401C159.9 98.7801 159.9 98.7801 159.9 98.8401Z" fill="#746FA7"/>
<path d="M210.06 123.32C206.16 121.04 201.18 122.42 198.9 126.32C196.62 130.22 198 135.2 201.9 137.48C205.8 139.76 210.78 138.38 213.06 134.48C215.28 130.58 213.96 125.6 210.06 123.32Z" fill="#99558E"/>
<path d="M190.8 121.64C192.36 118.88 191.46 115.4 188.7 113.84C185.94 112.28 182.46 113.18 180.9 115.94C179.34 118.7 180.24 122.18 183 123.74C185.7 125.3 189.18 124.34 190.8 121.64Z" fill="#99558E"/>
<path d="M173.58 111.74C174.72 109.76 174.06 107.3 172.08 106.16C170.1 105.02 167.64 105.68 166.5 107.66C165.36 109.64 166.02 112.1 168 113.24C169.98 114.32 172.44 113.66 173.58 111.74Z" fill="#99558E"/>
<path d="M160.2 103.94C160.92 102.68 160.5 101.06 159.24 100.28C157.98 99.5601 156.36 99.9801 155.58 101.24C154.8 102.5 155.28 104.12 156.54 104.9C156.54 104.9 156.54 104.9 156.6 104.9C157.86 105.62 159.48 105.2 160.2 103.94Z" fill="#99558E"/>
<path d="M187.56 142.34C184.68 145.22 184.68 149.84 187.56 152.72C190.44 155.6 195.06 155.6 197.94 152.72C200.82 149.84 200.82 145.22 197.94 142.34C195.12 139.52 190.44 139.52 187.56 142.34Z" fill="#AF3379"/>
<path d="M180.06 134.84C182.16 132.74 182.16 129.38 180.06 127.34C177.96 125.24 174.6 125.24 172.56 127.34C170.46 129.44 170.46 132.8 172.56 134.84C174.6 136.94 177.96 136.94 180.06 134.84Z" fill="#AF3379"/>
<path d="M166.08 120.86C167.52 119.42 167.52 117.08 166.08 115.64C164.64 114.2 162.3 114.2 160.86 115.64C159.42 117.08 159.42 119.42 160.86 120.8C162.3 122.3 164.64 122.3 166.08 120.86Z" fill="#AF3379"/>
<path d="M151.8 110C152.76 110.96 154.32 110.96 155.28 110C156.24 109.04 156.24 107.48 155.28 106.52C154.32 105.56 152.76 105.56 151.8 106.52C150.84 107.48 150.84 109.04 151.8 110Z" fill="#AF3379"/>
<path d="M172.14 154.7C168.84 156.62 167.7 160.88 169.62 164.18C171.54 167.48 175.8 168.62 179.1 166.7C182.4 164.78 183.54 160.52 181.62 157.22C179.7 153.92 175.44 152.78 172.14 154.7Z" fill="#BE266A"/>
<path d="M168.18 138.14C166.8 135.8 163.86 134.96 161.46 136.34C159.12 137.72 158.28 140.66 159.66 143.06C161.04 145.4 163.98 146.24 166.38 144.86C168.72 143.48 169.56 140.48 168.18 138.14Z" fill="#BE266A"/>
<path d="M156.48 127.64C158.04 126.74 158.58 124.76 157.68 123.2C156.78 121.64 154.8 121.1 153.24 122C151.68 122.9 151.14 124.88 152.04 126.44C152.94 128 154.92 128.54 156.48 127.64Z" fill="#BE266A"/>
<path d="M146.7 110.66C145.62 111.26 145.26 112.64 145.86 113.72C146.46 114.8 147.84 115.16 148.92 114.56C150 113.96 150.36 112.58 149.76 111.5C149.16 110.42 147.78 110.06 146.7 110.66Z" fill="#BE266A"/>
<path d="M153.9 162.68C150.42 163.64 148.32 167.18 149.28 170.66C150.24 174.14 153.78 176.24 157.26 175.28C160.74 174.32 162.84 170.78 161.88 167.3C160.98 163.82 157.38 161.72 153.9 162.68Z" fill="#D4525C"/>
<path d="M150.72 150.8C153.12 150.14 154.56 147.68 153.9 145.28C153.24 142.88 150.78 141.44 148.38 142.1C145.98 142.76 144.6 145.22 145.2 147.62C145.86 150.08 148.32 151.46 150.72 150.8C150.72 150.86 150.72 150.86 150.72 150.8Z" fill="#D4525C"/>
<path d="M147.78 128.12C147.36 126.5 145.68 125.54 144.06 125.96C142.44 126.38 141.48 128.06 141.9 129.68C142.32 131.3 144 132.26 145.62 131.84C147.3 131.48 148.26 129.8 147.78 128.12C147.78 128.18 147.78 128.18 147.78 128.12Z" fill="#D4525C"/>
<path d="M143.16 114.8C142.86 113.72 141.72 113.06 140.64 113.36C139.56 113.66 138.9 114.8 139.2 115.88C139.5 116.96 140.58 117.62 141.72 117.32C142.8 117.02 143.46 115.88 143.16 114.8Z" fill="#D4525C"/>
<path d="M134.1 165.68C130.74 165.68 127.98 168.44 127.98 171.8C127.98 175.16 130.74 177.92 134.1 177.92C137.46 177.92 140.22 175.22 140.22 171.8C140.22 168.44 137.52 165.68 134.1 165.68Z" fill="#E0654F"/>
<path d="M130.02 148.52C130.02 150.8 131.82 152.6 134.1 152.6C136.38 152.6 138.18 150.8 138.18 148.52C138.18 146.24 136.38 144.44 134.1 144.44C131.88 144.44 130.02 146.24 130.02 148.52Z" fill="#E0654F"/>
<path d="M134.1 133.16C135.66 133.16 136.98 131.9 136.98 130.28C136.98 128.66 135.72 127.4 134.1 127.4C132.54 127.4 131.22 128.66 131.22 130.28C131.28 131.9 132.54 133.16 134.1 133.16C134.1 133.22 134.1 133.22 134.1 133.16Z" fill="#E0654F"/>
<path d="M134.1 114.38C133.08 114.38 132.24 115.22 132.24 116.24C132.24 117.26 133.08 118.1 134.1 118.1C135.12 118.1 135.96 117.26 135.96 116.24C135.96 115.22 135.12 114.38 134.1 114.38Z" fill="#E0654F"/>
<path d="M114.12 163.4C111.06 162.56 107.94 164.42 107.1 167.42C106.26 170.48 108.12 173.6 111.12 174.44C114.18 175.28 117.3 173.42 118.14 170.42C118.98 167.36 117.18 164.24 114.12 163.4Z" fill="#F57F2A"/>
<path d="M119.64 142.88C117.66 142.34 115.68 143.54 115.14 145.46C114.6 147.44 115.8 149.42 117.72 149.96C119.7 150.5 121.68 149.3 122.22 147.38C122.76 145.46 121.62 143.42 119.64 142.88Z" fill="#F57F2A"/>
<path d="M124.08 126.32C122.64 125.96 121.2 126.8 120.84 128.18C120.48 129.62 121.32 131.06 122.7 131.42C124.14 131.78 125.58 130.94 125.94 129.56C126.36 128.18 125.52 126.74 124.08 126.32Z" fill="#F57F2A"/>
<path d="M128.64 115.7C128.88 114.8 128.34 113.9 127.5 113.72C126.66 113.54 125.7 114.02 125.52 114.86C125.34 115.7 125.82 116.66 126.66 116.84C127.5 117.08 128.4 116.6 128.64 115.7Z" fill="#F57F2A"/>
<path d="M95.34 156.02C92.82 154.58 89.58 155.42 88.08 157.94C86.64 160.46 87.48 163.7 90 165.2C92.52 166.64 95.76 165.8 97.26 163.28C98.76 160.76 97.86 157.52 95.34 156.02Z" fill="#F89828"/>
<path d="M105.96 137.66C104.4 136.76 102.42 137.3 101.52 138.86C100.62 140.42 101.16 142.4 102.72 143.3C104.28 144.2 106.26 143.66 107.16 142.1C108.06 140.54 107.52 138.56 105.96 137.66Z" fill="#F89828"/>
<path d="M112.2 126.86C113.4 127.52 114.9 127.16 115.56 125.96C116.22 124.76 115.86 123.26 114.66 122.6C113.46 121.94 111.96 122.3 111.3 123.5C110.64 124.7 111 126.2 112.2 126.86Z" fill="#F89828"/>
<path d="M121.2 111.26C120.54 110.84 119.64 111.08 119.28 111.8C118.86 112.46 119.1 113.36 119.82 113.72C120.48 114.14 121.38 113.9 121.74 113.18C122.1 112.58 121.86 111.68 121.2 111.26C121.2 111.32 121.2 111.32 121.2 111.26Z" fill="#F89828"/>
<path d="M72.06 143.96C70.14 145.88 70.14 149 72.06 150.92C73.98 152.84 77.1 152.84 79.02 150.92C80.94 149 80.94 145.88 79.02 143.96C77.1 142.04 73.98 142.04 72.06 143.96Z" fill="#FEC127"/>
<path d="M90 128.96C88.86 130.1 88.86 131.9 90 132.98C91.14 134.12 92.94 134.12 94.02 132.98C95.1 131.84 95.16 130.04 94.02 128.96C92.94 127.82 91.08 127.82 90 128.96Z" fill="#FEC127"/>
<path d="M103.26 116.54C102.36 117.44 102.36 118.82 103.26 119.72C104.16 120.62 105.54 120.62 106.44 119.72C107.34 118.82 107.34 117.44 106.44 116.54C105.54 115.64 104.1 115.64 103.26 116.54Z" fill="#FEC127"/>
<path d="M115.68 107.3C115.2 106.82 114.42 106.88 114 107.36C113.52 107.84 113.58 108.62 114.06 109.04C114.54 109.46 115.26 109.46 115.74 109.04C116.16 108.56 116.16 107.78 115.68 107.3Z" fill="#FEC127"/>
<path d="M60.12 126.38C57.96 127.64 57.24 130.34 58.5 132.5C59.76 134.66 62.46 135.38 64.62 134.12C66.78 132.86 67.5 130.16 66.24 128C65.04 125.84 62.28 125.12 60.12 126.38Z" fill="#FED627"/>
<path d="M81.2999 116.48C80.1599 117.14 79.7399 118.64 80.3999 119.84C81.0599 120.98 82.5599 121.4 83.7599 120.74C84.8999 120.08 85.32 118.58 84.66 117.38C84 116.24 82.4999 115.82 81.2999 116.48Z" fill="#FED627"/>
<path d="M97.26 107.78C96.3 108.32 95.94 109.58 96.54 110.54C97.08 111.5 98.34 111.86 99.3 111.26C100.26 110.72 100.62 109.46 100.02 108.5C99.48 107.54 98.22 107.18 97.26 107.78Z" fill="#FED627"/>
<path d="M51 74.7201H58.2V102.44H51V74.7201ZM55.38 62.3601C53.16 61.7601 50.88 63.0801 50.28 65.3001C49.68 67.5201 51 69.8001 53.22 70.4001C55.44 71.0001 57.72 69.6801 58.32 67.4601C58.92 65.2401 57.6 62.9001 55.38 62.3601ZM80.46 103.04C78.72 103.04 76.98 102.74 75.36 102.02C73.92 101.36 72.66 100.34 71.7 99.0801V116.3H64.68V74.7201H71.64V78.5601C72.54 77.1801 73.8 76.1001 75.3 75.3201C76.86 74.5401 78.6 74.1201 80.4 74.1201C82.14 74.1201 83.82 74.4801 85.44 75.1401C87.06 75.8001 88.5 76.8201 89.7 78.0201C90.96 79.3401 91.98 80.9001 92.64 82.5801C93.42 84.5001 93.78 86.4801 93.72 88.5201C93.78 90.5601 93.36 92.6001 92.58 94.5201C91.86 96.2001 90.84 97.7601 89.58 99.0801C87.24 101.6 83.88 103.04 80.46 103.04ZM79.02 96.3201C80.04 96.3201 81.06 96.1401 82.02 95.7201C82.92 95.3001 83.76 94.7601 84.48 94.0401C85.2 93.3201 85.74 92.4801 86.1 91.5801C86.88 89.6001 86.88 87.4401 86.1 85.4601C85.74 84.5601 85.14 83.7201 84.48 83.0001C83.76 82.2801 82.92 81.7401 82.02 81.3201C81.06 80.9001 80.04 80.7201 79.02 80.7201C76.98 80.7201 75 81.5601 73.5 83.0001C72.78 83.7201 72.24 84.5601 71.88 85.4601C71.1 87.4401 71.1 89.6001 71.88 91.5201C72.24 92.4201 72.78 93.2601 73.5 93.9801C75 95.5401 76.98 96.3801 79.02 96.3201ZM98.88 74.7201H105.84V78.9801C106.44 77.4801 107.46 76.2201 108.84 75.3801C110.28 74.6001 111.84 74.1801 113.52 74.2401C114.42 74.2401 115.26 74.3601 116.1 74.5401C116.82 74.7201 117.54 74.9601 118.2 75.3201L115.62 82.2801C115.14 81.9801 114.6 81.7401 114.06 81.5601C113.34 81.3801 112.62 81.2601 111.9 81.2601C110.28 81.2001 108.72 81.7401 107.52 82.7601C106.44 83.7801 105.9 85.4601 105.9 87.7401V102.38H98.88V74.7201ZM133.86 103.04C131.88 103.04 129.9 102.68 128.04 101.9C126.3 101.18 124.74 100.1 123.36 98.7801C120.66 96.0801 119.16 92.4201 119.16 88.5801C119.16 86.6601 119.52 84.7401 120.24 82.9401C120.96 81.2001 121.98 79.6401 123.3 78.3201C129.12 72.6801 138.36 72.6801 144.18 78.3201C146.88 81.0201 148.44 84.6801 148.44 88.5201C148.44 90.4401 148.08 92.3601 147.3 94.1001C146.58 95.8401 145.5 97.4001 144.24 98.7201C142.92 100.04 141.36 101.12 139.56 101.84C137.82 102.62 135.84 103.04 133.86 103.04ZM133.92 96.3201C134.94 96.3201 135.96 96.1401 136.92 95.7201C137.82 95.3001 138.6 94.7601 139.32 94.1001C140.04 93.3801 140.58 92.5401 140.94 91.6401C141.72 89.6601 141.72 87.5001 140.94 85.5801C140.58 84.6801 140.04 83.8401 139.32 83.1201C138.6 82.4001 137.82 81.8601 136.92 81.5001C135 80.6601 132.84 80.6601 130.98 81.5001C130.08 81.9201 129.3 82.4601 128.58 83.1201C127.86 83.8401 127.32 84.6801 126.96 85.5801C126.18 87.5601 126.18 89.7201 126.96 91.6401C127.32 92.5401 127.86 93.3801 128.58 94.1001C129.3 94.8201 130.08 95.3601 130.98 95.7201C131.88 96.0801 132.9 96.3201 133.92 96.3201ZM0.900024 74.7201H8.10002L13.68 92.4201L20.28 74.7201H26.52L33 92.4201L38.82 74.7201H46.02L36.6 102.44H29.94L23.34 84.3801L16.68 102.44H9.90002L0.900024 74.7201Z" fill="#351A55"/>
</svg>
